<svg width="20" height="21" viewBox="0 0 20 21" fill="none" xmlns="http://www.w3.org/2000/svg">
<g opacity="0.969855" clip-path="url(#clip0_1_5545)">
<path d="M19.7693 9.65386C17.8115 6.33157 14.1601 4.11111 10 4.11111C5.83821 4.11111 2.18766 6.33313 0.23078 9.65386C0.0796862 9.91025 0 10.2024 0 10.5C0 10.7976 0.0796862 11.0898 0.23078 11.3462C2.18859 14.6684 5.83995 16.8889 10 16.8889C14.1618 16.8889 17.8124 14.6669 19.7693 11.3461C19.9203 11.0898 20 10.7976 20 10.5C20 10.2024 19.9203 9.91024 19.7693 9.65386ZM10 15.2222C6.43904 15.2222 3.33019 13.3229 1.66668 10.5C3.19991 7.89816 5.96102 6.08091 9.17231 5.81226C9.51245 6.16243 9.72224 6.63993 9.72224 7.16667C9.72224 8.24056 8.85168 9.11111 7.77779 9.11111C6.70391 9.11111 5.83335 8.24056 5.83335 7.16667L5.83338 7.16521C5.47898 7.82789 5.27779 8.58486 5.27779 9.38889C5.27779 11.9969 7.392 14.1111 10 14.1111C12.608 14.1111 14.7222 11.9969 14.7222 9.38889C14.7222 8.31143 14.3611 7.31844 13.7537 6.52379C15.6842 7.32771 17.292 8.73285 18.3334 10.5C16.6699 13.3229 13.561 15.2222 10 15.2222Z" fill="black" stroke="black" stroke-width="0.0347222"/>
</g>
<defs>
<clipPath id="clip0_1_5545">
<rect width="20" height="20" fill="white" transform="translate(0 0.5)"/>
</clipPath>
</defs>
</svg>
